<svg width="128" height="128" viewBox="0 0 128 128" fill="none" xmlns="http://www.w3.org/2000/svg">
  <rect x="8" y="8" width="112" height="112" rx="24" fill="#F6FF65" stroke="#202020" stroke-width="8"/>
  <path d="M36 88C36 72 46 60 64 60C82 60 92 72 92 88V92H36V88Z" fill="#FF6F00" stroke="#202020" stroke-width="6" stroke-linejoin="round"/>
  <path d="M46 67C46 56 54 46 64 46C74 46 82 56 82 67" stroke="#202020" stroke-width="6" stroke-linecap="round"/>
  <circle cx="54" cy="78" r="5" fill="#202020"/>
  <circle cx="74" cy="78" r="5" fill="#202020"/>
  <path d="M58 88C60 84 68 84 70 88" stroke="#202020" stroke-width="5" stroke-linecap="round"/>
  <path d="M28 30L44 24" stroke="#FF6F00" stroke-width="6" stroke-linecap="round"/>
  <path d="M84 24L100 30" stroke="#FF6F00" stroke-width="6" stroke-linecap="round"/>
</svg>
